<?xml version="1.0"?><svg xmlns="http://www.w3.org/2000/svg" height="97" width="120" viewBox="0 0 120 97" version="1.1"><g transform="translate(-400,-332.68351)">
<g transform="matrix(0.22499972,0,0,0.22384633,400,321.49119)" fill="#b3b3b3">
<g fill="#b3b3b3">
<path fill="#b3b3b3" d="m158.33,300c0,59.831,48.502,108.33,108.33,108.33,59.84,0,108.34-48.5,108.34-108.33s-48.5-108.33-108.33-108.33-108.34,48.5-108.34,108.33zm341.67-183.33h-116.67c-8.333-33.337-16.663-66.67-50.003-66.67h-133.33c-33.333,0-41.667,33.333-50,66.667h-116.67c-18.333,0-33.333,15-33.333,33.33v300c0,18.333,15,33.333,33.333,33.333h466.67c18.333,0,33.334-15,33.334-33.333v-300c0-18.33-15-33.33-33.33-33.33zm-233.33,331.25c-81.69,0-147.92-66.23-147.92-147.92,0-81.692,66.224-147.92,147.92-147.92,81.693,0,147.92,66.224,147.92,147.92-0.001,81.693-66.223,147.92-147.92,147.92zm233.33-231.25h-66.666v-33.336h66.666v33.333z"/>
</g>
</g>
</g>
</svg>
