<svg width="92" height="32" viewBox="0 0 92 32" fill="none" xmlns="http://www.w3.org/2000/svg">
<path d="M90.7931 20.0411C90.6377 20.0411 90.496 20.1417 90.4229 20.352C89.4857 23.0263 88.2194 24.6171 87.1771 24.6171C86.5783 24.6171 86.336 23.9497 86.336 22.9029C86.336 20.2834 87.904 14.7291 88.6948 12.1966C88.7863 11.8903 88.8457 11.616 88.8457 11.3829C88.8457 10.6469 88.4434 10.2857 87.4469 10.2857C86.3726 10.2857 85.216 10.7063 84.0914 12.6766C83.7029 10.9394 82.528 10.1806 80.8868 10.1806C78.9897 10.1806 77.1566 11.4011 75.648 13.3806C74.1394 15.36 72.3657 16.0091 71.0309 15.6891C71.9909 13.3394 72.3474 11.584 72.3474 10.2811C72.3474 8.23771 71.3371 7.00343 69.7051 7.00343C67.2229 7.00343 65.792 9.37143 65.792 11.8629C65.792 13.7874 66.6651 15.7669 68.5851 16.7269C66.976 20.3657 64.6263 23.6571 63.7348 23.6571C62.5828 23.6571 62.2446 18.0206 62.3086 13.9886C62.3497 11.6754 62.5417 11.5566 62.5417 10.8571C62.5417 10.4549 62.2811 10.1806 61.2343 10.1806C58.7931 10.1806 58.0388 12.2469 57.9246 14.6194C57.888 15.52 57.7463 16.416 57.504 17.2846C56.4846 20.9234 54.3817 23.6846 53.0103 23.6846C52.3749 23.6846 52.2011 23.0491 52.2011 22.2171C52.2011 19.5977 53.6686 16.3246 53.6686 13.5314C53.6686 11.4789 52.768 10.1806 51.072 10.1806C49.0743 10.1806 46.432 12.5577 43.9314 17.0103C44.7543 13.6 45.0926 10.2994 42.656 10.2994C42.1257 10.3086 41.6091 10.4411 41.1429 10.6926C40.8229 10.8434 40.6263 11.1726 40.6491 11.5246C40.8823 15.1543 37.7234 24.4526 34.7291 24.4526C34.1851 24.4526 33.92 23.8629 33.92 22.912C33.92 20.288 35.4834 14.7474 36.2697 12.2103C36.3703 11.8811 36.4251 11.5977 36.4251 11.3509C36.4251 10.656 35.9954 10.2994 35.0217 10.2994C33.952 10.2994 32.7909 10.7063 31.6709 12.6766C31.2777 10.9394 30.1029 10.1806 28.4617 10.1806C25.7691 10.1806 22.7611 13.0286 21.44 16.7406C19.6709 21.696 16.1051 26.4823 11.3051 26.4823C6.94857 26.4823 4.64914 22.8571 4.64914 17.1291C4.64914 8.85943 10.72 2.10286 15.2229 2.10286C17.376 2.10286 18.4046 3.47429 18.4046 5.57714C18.4046 8.12343 16.9829 9.30743 16.9829 10.2766C16.9829 10.5737 17.2297 10.8663 17.7189 10.8663C19.6754 10.8663 21.9794 8.56686 21.9794 5.43086C21.9794 2.29486 19.4331 0 14.9303 0C7.488 0 0 7.488 0 17.0834C0 24.7177 3.76686 29.3211 10.2811 29.3211C14.7246 29.3211 18.6057 25.8651 20.6994 21.8331C20.9371 25.1749 22.4549 26.9211 24.768 26.9211C26.8251 26.9211 28.4891 25.696 29.76 23.5429C30.2491 25.7966 31.5474 26.8983 33.2343 26.8983C35.168 26.8983 36.7863 25.6731 38.3269 23.3966C38.304 25.184 38.7109 26.8663 40.2606 26.8663C40.992 26.8663 41.8651 26.6971 42.0206 26.0571C43.6526 19.3097 47.6846 13.8011 48.9188 13.8011C49.2846 13.8011 49.3851 14.1531 49.3851 14.5691C49.3851 16.4023 48.0914 20.16 48.0914 22.56C48.0914 25.152 49.1931 26.8663 51.4697 26.8663C53.9931 26.8663 56.5577 23.776 58.2674 19.2594C58.8023 23.4789 59.9589 26.8846 61.7691 26.8846C63.9908 26.8846 67.936 22.208 70.3269 17.2571C71.264 17.376 72.672 17.344 74.0251 16.3886C73.4491 17.8469 73.1109 19.4423 73.1109 21.0377C73.1109 25.632 75.3051 26.9211 77.1931 26.9211C79.2457 26.9211 80.9097 25.696 82.1851 23.5429C82.6057 25.4857 83.68 26.8937 85.6548 26.8937C88.7451 26.8937 91.4286 23.7349 91.4286 21.1429C91.4286 20.4571 91.136 20.0411 90.7931 20.0411ZM26.6514 24.3749C25.4034 24.3749 24.9143 23.1177 24.9143 21.2434C24.9143 17.9886 27.1406 12.5531 29.4949 12.5531C30.5234 12.5531 30.912 13.7646 30.912 15.2457C30.912 18.5509 28.7954 24.3749 26.6514 24.3749ZM69.3988 14.6606C68.6537 13.7737 68.384 12.5669 68.384 11.4926C68.384 10.1669 68.8686 9.04686 69.4491 9.04686C70.0297 9.04686 70.208 9.61829 70.208 10.4137C70.208 11.744 69.7326 13.6869 69.3988 14.6606ZM79.0766 24.3749C77.8286 24.3749 77.3394 22.9303 77.3394 21.2434C77.3394 18.1029 79.5657 12.5531 81.9383 12.5531C82.9669 12.5531 83.3326 13.7554 83.3326 15.2457C83.3326 18.5509 81.2526 24.3749 79.0766 24.3749Z" fill="#7D2AE7"/>
<path d="M90.7931 20.0411C90.6377 20.0411 90.496 20.1417 90.4229 20.352C89.4857 23.0263 88.2194 24.6171 87.1771 24.6171C86.5783 24.6171 86.336 23.9497 86.336 22.9029C86.336 20.2834 87.904 14.7291 88.6948 12.1966C88.7863 11.8903 88.8457 11.616 88.8457 11.3829C88.8457 10.6469 88.4434 10.2857 87.4469 10.2857C86.3726 10.2857 85.216 10.7063 84.0914 12.6766C83.7029 10.9394 82.528 10.1806 80.8868 10.1806C78.9897 10.1806 77.1566 11.4011 75.648 13.3806C74.1394 15.36 72.3657 16.0091 71.0309 15.6891C71.9909 13.3394 72.3474 11.584 72.3474 10.2811C72.3474 8.23771 71.3371 7.00343 69.7051 7.00343C67.2229 7.00343 65.792 9.37143 65.792 11.8629C65.792 13.7874 66.6651 15.7669 68.5851 16.7269C66.976 20.3657 64.6263 23.6571 63.7348 23.6571C62.5828 23.6571 62.2446 18.0206 62.3086 13.9886C62.3497 11.6754 62.5417 11.5566 62.5417 10.8571C62.5417 10.4549 62.2811 10.1806 61.2343 10.1806C58.7931 10.1806 58.0388 12.2469 57.9246 14.6194C57.888 15.52 57.7463 16.416 57.504 17.2846C56.4846 20.9234 54.3817 23.6846 53.0103 23.6846C52.3749 23.6846 52.2011 23.0491 52.2011 22.2171C52.2011 19.5977 53.6686 16.3246 53.6686 13.5314C53.6686 11.4789 52.768 10.1806 51.072 10.1806C49.0743 10.1806 46.432 12.5577 43.9314 17.0103C44.7543 13.6 45.0926 10.2994 42.656 10.2994C42.1257 10.3086 41.6091 10.4411 41.1429 10.6926C40.8229 10.8434 40.6263 11.1726 40.6491 11.5246C40.8823 15.1543 37.7234 24.4526 34.7291 24.4526C34.1851 24.4526 33.92 23.8629 33.92 22.912C33.92 20.288 35.4834 14.7474 36.2697 12.2103C36.3703 11.8811 36.4251 11.5977 36.4251 11.3509C36.4251 10.656 35.9954 10.2994 35.0217 10.2994C33.952 10.2994 32.7909 10.7063 31.6709 12.6766C31.2777 10.9394 30.1029 10.1806 28.4617 10.1806C25.7691 10.1806 22.7611 13.0286 21.44 16.7406C19.6709 21.696 16.1051 26.4823 11.3051 26.4823C6.94857 26.4823 4.64914 22.8571 4.64914 17.1291C4.64914 8.85943 10.72 2.10286 15.2229 2.10286C17.376 2.10286 18.4046 3.47429 18.4046 5.57714C18.4046 8.12343 16.9829 9.30743 16.9829 10.2766C16.9829 10.5737 17.2297 10.8663 17.7189 10.8663C19.6754 10.8663 21.9794 8.56686 21.9794 5.43086C21.9794 2.29486 19.4331 0 14.9303 0C7.488 0 0 7.488 0 17.0834C0 24.7177 3.76686 29.3211 10.2811 29.3211C14.7246 29.3211 18.6057 25.8651 20.6994 21.8331C20.9371 25.1749 22.4549 26.9211 24.768 26.9211C26.8251 26.9211 28.4891 25.696 29.76 23.5429C30.2491 25.7966 31.5474 26.8983 33.2343 26.8983C35.168 26.8983 36.7863 25.6731 38.3269 23.3966C38.304 25.184 38.7109 26.8663 40.2606 26.8663C40.992 26.8663 41.8651 26.6971 42.0206 26.0571C43.6526 19.3097 47.6846 13.8011 48.9188 13.8011C49.2846 13.8011 49.3851 14.1531 49.3851 14.5691C49.3851 16.4023 48.0914 20.16 48.0914 22.56C48.0914 25.152 49.1931 26.8663 51.4697 26.8663C53.9931 26.8663 56.5577 23.776 58.2674 19.2594C58.8023 23.4789 59.9589 26.8846 61.7691 26.8846C63.9908 26.8846 67.936 22.208 70.3269 17.2571C71.264 17.376 72.672 17.344 74.0251 16.3886C73.4491 17.8469 73.1109 19.4423 73.1109 21.0377C73.1109 25.632 75.3051 26.9211 77.1931 26.9211C79.2457 26.9211 80.9097 25.696 82.1851 23.5429C82.6057 25.4857 83.68 26.8937 85.6548 26.8937C88.7451 26.8937 91.4286 23.7349 91.4286 21.1429C91.4286 20.4571 91.136 20.0411 90.7931 20.0411ZM26.6514 24.3749C25.4034 24.3749 24.9143 23.1177 24.9143 21.2434C24.9143 17.9886 27.1406 12.5531 29.4949 12.5531C30.5234 12.5531 30.912 13.7646 30.912 15.2457C30.912 18.5509 28.7954 24.3749 26.6514 24.3749ZM69.3988 14.6606C68.6537 13.7737 68.384 12.5669 68.384 11.4926C68.384 10.1669 68.8686 9.04686 69.4491 9.04686C70.0297 9.04686 70.208 9.61829 70.208 10.4137C70.208 11.744 69.7326 13.6869 69.3988 14.6606ZM79.0766 24.3749C77.8286 24.3749 77.3394 22.9303 77.3394 21.2434C77.3394 18.1029 79.5657 12.5531 81.9383 12.5531C82.9669 12.5531 83.3326 13.7554 83.3326 15.2457C83.3326 18.5509 81.2526 24.3749 79.0766 24.3749Z" fill="url(#paint0_radial_2003:32123)"/>
<path d="M90.7931 20.0411C90.6377 20.0411 90.496 20.1417 90.4229 20.352C89.4857 23.0263 88.2194 24.6171 87.1771 24.6171C86.5783 24.6171 86.336 23.9497 86.336 22.9029C86.336 20.2834 87.904 14.7291 88.6948 12.1966C88.7863 11.8903 88.8457 11.616 88.8457 11.3829C88.8457 10.6469 88.4434 10.2857 87.4469 10.2857C86.3726 10.2857 85.216 10.7063 84.0914 12.6766C83.7029 10.9394 82.528 10.1806 80.8868 10.1806C78.9897 10.1806 77.1566 11.4011 75.648 13.3806C74.1394 15.36 72.3657 16.0091 71.0309 15.6891C71.9909 13.3394 72.3474 11.584 72.3474 10.2811C72.3474 8.23771 71.3371 7.00343 69.7051 7.00343C67.2229 7.00343 65.792 9.37143 65.792 11.8629C65.792 13.7874 66.6651 15.7669 68.5851 16.7269C66.976 20.3657 64.6263 23.6571 63.7348 23.6571C62.5828 23.6571 62.2446 18.0206 62.3086 13.9886C62.3497 11.6754 62.5417 11.5566 62.5417 10.8571C62.5417 10.4549 62.2811 10.1806 61.2343 10.1806C58.7931 10.1806 58.0388 12.2469 57.9246 14.6194C57.888 15.52 57.7463 16.416 57.504 17.2846C56.4846 20.9234 54.3817 23.6846 53.0103 23.6846C52.3749 23.6846 52.2011 23.0491 52.2011 22.2171C52.2011 19.5977 53.6686 16.3246 53.6686 13.5314C53.6686 11.4789 52.768 10.1806 51.072 10.1806C49.0743 10.1806 46.432 12.5577 43.9314 17.0103C44.7543 13.6 45.0926 10.2994 42.656 10.2994C42.1257 10.3086 41.6091 10.4411 41.1429 10.6926C40.8229 10.8434 40.6263 11.1726 40.6491 11.5246C40.8823 15.1543 37.7234 24.4526 34.7291 24.4526C34.1851 24.4526 33.92 23.8629 33.92 22.912C33.92 20.288 35.4834 14.7474 36.2697 12.2103C36.3703 11.8811 36.4251 11.5977 36.4251 11.3509C36.4251 10.656 35.9954 10.2994 35.0217 10.2994C33.952 10.2994 32.7909 10.7063 31.6709 12.6766C31.2777 10.9394 30.1029 10.1806 28.4617 10.1806C25.7691 10.1806 22.7611 13.0286 21.44 16.7406C19.6709 21.696 16.1051 26.4823 11.3051 26.4823C6.94857 26.4823 4.64914 22.8571 4.64914 17.1291C4.64914 8.85943 10.72 2.10286 15.2229 2.10286C17.376 2.10286 18.4046 3.47429 18.4046 5.57714C18.4046 8.12343 16.9829 9.30743 16.9829 10.2766C16.9829 10.5737 17.2297 10.8663 17.7189 10.8663C19.6754 10.8663 21.9794 8.56686 21.9794 5.43086C21.9794 2.29486 19.4331 0 14.9303 0C7.488 0 0 7.488 0 17.0834C0 24.7177 3.76686 29.3211 10.2811 29.3211C14.7246 29.3211 18.6057 25.8651 20.6994 21.8331C20.9371 25.1749 22.4549 26.9211 24.768 26.9211C26.8251 26.9211 28.4891 25.696 29.76 23.5429C30.2491 25.7966 31.5474 26.8983 33.2343 26.8983C35.168 26.8983 36.7863 25.6731 38.3269 23.3966C38.304 25.184 38.7109 26.8663 40.2606 26.8663C40.992 26.8663 41.8651 26.6971 42.0206 26.0571C43.6526 19.3097 47.6846 13.8011 48.9188 13.8011C49.2846 13.8011 49.3851 14.1531 49.3851 14.5691C49.3851 16.4023 48.0914 20.16 48.0914 22.56C48.0914 25.152 49.1931 26.8663 51.4697 26.8663C53.9931 26.8663 56.5577 23.776 58.2674 19.2594C58.8023 23.4789 59.9589 26.8846 61.7691 26.8846C63.9908 26.8846 67.936 22.208 70.3269 17.2571C71.264 17.376 72.672 17.344 74.0251 16.3886C73.4491 17.8469 73.1109 19.4423 73.1109 21.0377C73.1109 25.632 75.3051 26.9211 77.1931 26.9211C79.2457 26.9211 80.9097 25.696 82.1851 23.5429C82.6057 25.4857 83.68 26.8937 85.6548 26.8937C88.7451 26.8937 91.4286 23.7349 91.4286 21.1429C91.4286 20.4571 91.136 20.0411 90.7931 20.0411ZM26.6514 24.3749C25.4034 24.3749 24.9143 23.1177 24.9143 21.2434C24.9143 17.9886 27.1406 12.5531 29.4949 12.5531C30.5234 12.5531 30.912 13.7646 30.912 15.2457C30.912 18.5509 28.7954 24.3749 26.6514 24.3749ZM69.3988 14.6606C68.6537 13.7737 68.384 12.5669 68.384 11.4926C68.384 10.1669 68.8686 9.04686 69.4491 9.04686C70.0297 9.04686 70.208 9.61829 70.208 10.4137C70.208 11.744 69.7326 13.6869 69.3988 14.6606ZM79.0766 24.3749C77.8286 24.3749 77.3394 22.9303 77.3394 21.2434C77.3394 18.1029 79.5657 12.5531 81.9383 12.5531C82.9669 12.5531 83.3326 13.7554 83.3326 15.2457C83.3326 18.5509 81.2526 24.3749 79.0766 24.3749Z" fill="url(#paint1_radial_2003:32123)"/>
<path d="M90.7931 20.0411C90.6377 20.0411 90.496 20.1417 90.4229 20.352C89.4857 23.0263 88.2194 24.6171 87.1771 24.6171C86.5783 24.6171 86.336 23.9497 86.336 22.9029C86.336 20.2834 87.904 14.7291 88.6948 12.1966C88.7863 11.8903 88.8457 11.616 88.8457 11.3829C88.8457 10.6469 88.4434 10.2857 87.4469 10.2857C86.3726 10.2857 85.216 10.7063 84.0914 12.6766C83.7029 10.9394 82.528 10.1806 80.8868 10.1806C78.9897 10.1806 77.1566 11.4011 75.648 13.3806C74.1394 15.36 72.3657 16.0091 71.0309 15.6891C71.9909 13.3394 72.3474 11.584 72.3474 10.2811C72.3474 8.23771 71.3371 7.00343 69.7051 7.00343C67.2229 7.00343 65.792 9.37143 65.792 11.8629C65.792 13.7874 66.6651 15.7669 68.5851 16.7269C66.976 20.3657 64.6263 23.6571 63.7348 23.6571C62.5828 23.6571 62.2446 18.0206 62.3086 13.9886C62.3497 11.6754 62.5417 11.5566 62.5417 10.8571C62.5417 10.4549 62.2811 10.1806 61.2343 10.1806C58.7931 10.1806 58.0388 12.2469 57.9246 14.6194C57.888 15.52 57.7463 16.416 57.504 17.2846C56.4846 20.9234 54.3817 23.6846 53.0103 23.6846C52.3749 23.6846 52.2011 23.0491 52.2011 22.2171C52.2011 19.5977 53.6686 16.3246 53.6686 13.5314C53.6686 11.4789 52.768 10.1806 51.072 10.1806C49.0743 10.1806 46.432 12.5577 43.9314 17.0103C44.7543 13.6 45.0926 10.2994 42.656 10.2994C42.1257 10.3086 41.6091 10.4411 41.1429 10.6926C40.8229 10.8434 40.6263 11.1726 40.6491 11.5246C40.8823 15.1543 37.7234 24.4526 34.7291 24.4526C34.1851 24.4526 33.92 23.8629 33.92 22.912C33.92 20.288 35.4834 14.7474 36.2697 12.2103C36.3703 11.8811 36.4251 11.5977 36.4251 11.3509C36.4251 10.656 35.9954 10.2994 35.0217 10.2994C33.952 10.2994 32.7909 10.7063 31.6709 12.6766C31.2777 10.9394 30.1029 10.1806 28.4617 10.1806C25.7691 10.1806 22.7611 13.0286 21.44 16.7406C19.6709 21.696 16.1051 26.4823 11.3051 26.4823C6.94857 26.4823 4.64914 22.8571 4.64914 17.1291C4.64914 8.85943 10.72 2.10286 15.2229 2.10286C17.376 2.10286 18.4046 3.47429 18.4046 5.57714C18.4046 8.12343 16.9829 9.30743 16.9829 10.2766C16.9829 10.5737 17.2297 10.8663 17.7189 10.8663C19.6754 10.8663 21.9794 8.56686 21.9794 5.43086C21.9794 2.29486 19.4331 0 14.9303 0C7.488 0 0 7.488 0 17.0834C0 24.7177 3.76686 29.3211 10.2811 29.3211C14.7246 29.3211 18.6057 25.8651 20.6994 21.8331C20.9371 25.1749 22.4549 26.9211 24.768 26.9211C26.8251 26.9211 28.4891 25.696 29.76 23.5429C30.2491 25.7966 31.5474 26.8983 33.2343 26.8983C35.168 26.8983 36.7863 25.6731 38.3269 23.3966C38.304 25.184 38.7109 26.8663 40.2606 26.8663C40.992 26.8663 41.8651 26.6971 42.0206 26.0571C43.6526 19.3097 47.6846 13.8011 48.9188 13.8011C49.2846 13.8011 49.3851 14.1531 49.3851 14.5691C49.3851 16.4023 48.0914 20.16 48.0914 22.56C48.0914 25.152 49.1931 26.8663 51.4697 26.8663C53.9931 26.8663 56.5577 23.776 58.2674 19.2594C58.8023 23.4789 59.9589 26.8846 61.7691 26.8846C63.9908 26.8846 67.936 22.208 70.3269 17.2571C71.264 17.376 72.672 17.344 74.0251 16.3886C73.4491 17.8469 73.1109 19.4423 73.1109 21.0377C73.1109 25.632 75.3051 26.9211 77.1931 26.9211C79.2457 26.9211 80.9097 25.696 82.1851 23.5429C82.6057 25.4857 83.68 26.8937 85.6548 26.8937C88.7451 26.8937 91.4286 23.7349 91.4286 21.1429C91.4286 20.4571 91.136 20.0411 90.7931 20.0411ZM26.6514 24.3749C25.4034 24.3749 24.9143 23.1177 24.9143 21.2434C24.9143 17.9886 27.1406 12.5531 29.4949 12.5531C30.5234 12.5531 30.912 13.7646 30.912 15.2457C30.912 18.5509 28.7954 24.3749 26.6514 24.3749ZM69.3988 14.6606C68.6537 13.7737 68.384 12.5669 68.384 11.4926C68.384 10.1669 68.8686 9.04686 69.4491 9.04686C70.0297 9.04686 70.208 9.61829 70.208 10.4137C70.208 11.744 69.7326 13.6869 69.3988 14.6606ZM79.0766 24.3749C77.8286 24.3749 77.3394 22.9303 77.3394 21.2434C77.3394 18.1029 79.5657 12.5531 81.9383 12.5531C82.9669 12.5531 83.3326 13.7554 83.3326 15.2457C83.3326 18.5509 81.2526 24.3749 79.0766 24.3749Z" fill="url(#paint2_radial_2003:32123)"/>
<path d="M90.7931 20.0411C90.6377 20.0411 90.496 20.1417 90.4229 20.352C89.4857 23.0263 88.2194 24.6171 87.1771 24.6171C86.5783 24.6171 86.336 23.9497 86.336 22.9029C86.336 20.2834 87.904 14.7291 88.6948 12.1966C88.7863 11.8903 88.8457 11.616 88.8457 11.3829C88.8457 10.6469 88.4434 10.2857 87.4469 10.2857C86.3726 10.2857 85.216 10.7063 84.0914 12.6766C83.7029 10.9394 82.528 10.1806 80.8868 10.1806C78.9897 10.1806 77.1566 11.4011 75.648 13.3806C74.1394 15.36 72.3657 16.0091 71.0309 15.6891C71.9909 13.3394 72.3474 11.584 72.3474 10.2811C72.3474 8.23771 71.3371 7.00343 69.7051 7.00343C67.2229 7.00343 65.792 9.37143 65.792 11.8629C65.792 13.7874 66.6651 15.7669 68.5851 16.7269C66.976 20.3657 64.6263 23.6571 63.7348 23.6571C62.5828 23.6571 62.2446 18.0206 62.3086 13.9886C62.3497 11.6754 62.5417 11.5566 62.5417 10.8571C62.5417 10.4549 62.2811 10.1806 61.2343 10.1806C58.7931 10.1806 58.0388 12.2469 57.9246 14.6194C57.888 15.52 57.7463 16.416 57.504 17.2846C56.4846 20.9234 54.3817 23.6846 53.0103 23.6846C52.3749 23.6846 52.2011 23.0491 52.2011 22.2171C52.2011 19.5977 53.6686 16.3246 53.6686 13.5314C53.6686 11.4789 52.768 10.1806 51.072 10.1806C49.0743 10.1806 46.432 12.5577 43.9314 17.0103C44.7543 13.6 45.0926 10.2994 42.656 10.2994C42.1257 10.3086 41.6091 10.4411 41.1429 10.6926C40.8229 10.8434 40.6263 11.1726 40.6491 11.5246C40.8823 15.1543 37.7234 24.4526 34.7291 24.4526C34.1851 24.4526 33.92 23.8629 33.92 22.912C33.92 20.288 35.4834 14.7474 36.2697 12.2103C36.3703 11.8811 36.4251 11.5977 36.4251 11.3509C36.4251 10.656 35.9954 10.2994 35.0217 10.2994C33.952 10.2994 32.7909 10.7063 31.6709 12.6766C31.2777 10.9394 30.1029 10.1806 28.4617 10.1806C25.7691 10.1806 22.7611 13.0286 21.44 16.7406C19.6709 21.696 16.1051 26.4823 11.3051 26.4823C6.94857 26.4823 4.64914 22.8571 4.64914 17.1291C4.64914 8.85943 10.72 2.10286 15.2229 2.10286C17.376 2.10286 18.4046 3.47429 18.4046 5.57714C18.4046 8.12343 16.9829 9.30743 16.9829 10.2766C16.9829 10.5737 17.2297 10.8663 17.7189 10.8663C19.6754 10.8663 21.9794 8.56686 21.9794 5.43086C21.9794 2.29486 19.4331 0 14.9303 0C7.488 0 0 7.488 0 17.0834C0 24.7177 3.76686 29.3211 10.2811 29.3211C14.7246 29.3211 18.6057 25.8651 20.6994 21.8331C20.9371 25.1749 22.4549 26.9211 24.768 26.9211C26.8251 26.9211 28.4891 25.696 29.76 23.5429C30.2491 25.7966 31.5474 26.8983 33.2343 26.8983C35.168 26.8983 36.7863 25.6731 38.3269 23.3966C38.304 25.184 38.7109 26.8663 40.2606 26.8663C40.992 26.8663 41.8651 26.6971 42.0206 26.0571C43.6526 19.3097 47.6846 13.8011 48.9188 13.8011C49.2846 13.8011 49.3851 14.1531 49.3851 14.5691C49.3851 16.4023 48.0914 20.16 48.0914 22.56C48.0914 25.152 49.1931 26.8663 51.4697 26.8663C53.9931 26.8663 56.5577 23.776 58.2674 19.2594C58.8023 23.4789 59.9589 26.8846 61.7691 26.8846C63.9908 26.8846 67.936 22.208 70.3269 17.2571C71.264 17.376 72.672 17.344 74.0251 16.3886C73.4491 17.8469 73.1109 19.4423 73.1109 21.0377C73.1109 25.632 75.3051 26.9211 77.1931 26.9211C79.2457 26.9211 80.9097 25.696 82.1851 23.5429C82.6057 25.4857 83.68 26.8937 85.6548 26.8937C88.7451 26.8937 91.4286 23.7349 91.4286 21.1429C91.4286 20.4571 91.136 20.0411 90.7931 20.0411ZM26.6514 24.3749C25.4034 24.3749 24.9143 23.1177 24.9143 21.2434C24.9143 17.9886 27.1406 12.5531 29.4949 12.5531C30.5234 12.5531 30.912 13.7646 30.912 15.2457C30.912 18.5509 28.7954 24.3749 26.6514 24.3749ZM69.3988 14.6606C68.6537 13.7737 68.384 12.5669 68.384 11.4926C68.384 10.1669 68.8686 9.04686 69.4491 9.04686C70.0297 9.04686 70.208 9.61829 70.208 10.4137C70.208 11.744 69.7326 13.6869 69.3988 14.6606ZM79.0766 24.3749C77.8286 24.3749 77.3394 22.9303 77.3394 21.2434C77.3394 18.1029 79.5657 12.5531 81.9383 12.5531C82.9669 12.5531 83.3326 13.7554 83.3326 15.2457C83.3326 18.5509 81.2526 24.3749 79.0766 24.3749Z" fill="url(#paint3_radial_2003:32123)"/>
<path d="M90.7931 20.0411C90.6377 20.0411 90.496 20.1417 90.4229 20.352C89.4857 23.0263 88.2194 24.6171 87.1771 24.6171C86.5783 24.6171 86.336 23.9497 86.336 22.9029C86.336 20.2834 87.904 14.7291 88.6948 12.1966C88.7863 11.8903 88.8457 11.616 88.8457 11.3829C88.8457 10.6469 88.4434 10.2857 87.4469 10.2857C86.3726 10.2857 85.216 10.7063 84.0914 12.6766C83.7029 10.9394 82.528 10.1806 80.8868 10.1806C78.9897 10.1806 77.1566 11.4011 75.648 13.3806C74.1394 15.36 72.3657 16.0091 71.0309 15.6891C71.9909 13.3394 72.3474 11.584 72.3474 10.2811C72.3474 8.23771 71.3371 7.00343 69.7051 7.00343C67.2229 7.00343 65.792 9.37143 65.792 11.8629C65.792 13.7874 66.6651 15.7669 68.5851 16.7269C66.976 20.3657 64.6263 23.6571 63.7348 23.6571C62.5828 23.6571 62.2446 18.0206 62.3086 13.9886C62.3497 11.6754 62.5417 11.5566 62.5417 10.8571C62.5417 10.4549 62.2811 10.1806 61.2343 10.1806C58.7931 10.1806 58.0388 12.2469 57.9246 14.6194C57.888 15.52 57.7463 16.416 57.504 17.2846C56.4846 20.9234 54.3817 23.6846 53.0103 23.6846C52.3749 23.6846 52.2011 23.0491 52.2011 22.2171C52.2011 19.5977 53.6686 16.3246 53.6686 13.5314C53.6686 11.4789 52.768 10.1806 51.072 10.1806C49.0743 10.1806 46.432 12.5577 43.9314 17.0103C44.7543 13.6 45.0926 10.2994 42.656 10.2994C42.1257 10.3086 41.6091 10.4411 41.1429 10.6926C40.8229 10.8434 40.6263 11.1726 40.6491 11.5246C40.8823 15.1543 37.7234 24.4526 34.7291 24.4526C34.1851 24.4526 33.92 23.8629 33.92 22.912C33.92 20.288 35.4834 14.7474 36.2697 12.2103C36.3703 11.8811 36.4251 11.5977 36.4251 11.3509C36.4251 10.656 35.9954 10.2994 35.0217 10.2994C33.952 10.2994 32.7909 10.7063 31.6709 12.6766C31.2777 10.9394 30.1029 10.1806 28.4617 10.1806C25.7691 10.1806 22.7611 13.0286 21.44 16.7406C19.6709 21.696 16.1051 26.4823 11.3051 26.4823C6.94857 26.4823 4.64914 22.8571 4.64914 17.1291C4.64914 8.85943 10.72 2.10286 15.2229 2.10286C17.376 2.10286 18.4046 3.47429 18.4046 5.57714C18.4046 8.12343 16.9829 9.30743 16.9829 10.2766C16.9829 10.5737 17.2297 10.8663 17.7189 10.8663C19.6754 10.8663 21.9794 8.56686 21.9794 5.43086C21.9794 2.29486 19.4331 0 14.9303 0C7.488 0 0 7.488 0 17.0834C0 24.7177 3.76686 29.3211 10.2811 29.3211C14.7246 29.3211 18.6057 25.8651 20.6994 21.8331C20.9371 25.1749 22.4549 26.9211 24.768 26.9211C26.8251 26.9211 28.4891 25.696 29.76 23.5429C30.2491 25.7966 31.5474 26.8983 33.2343 26.8983C35.168 26.8983 36.7863 25.6731 38.3269 23.3966C38.304 25.184 38.7109 26.8663 40.2606 26.8663C40.992 26.8663 41.8651 26.6971 42.0206 26.0571C43.6526 19.3097 47.6846 13.8011 48.9188 13.8011C49.2846 13.8011 49.3851 14.1531 49.3851 14.5691C49.3851 16.4023 48.0914 20.16 48.0914 22.56C48.0914 25.152 49.1931 26.8663 51.4697 26.8663C53.9931 26.8663 56.5577 23.776 58.2674 19.2594C58.8023 23.4789 59.9589 26.8846 61.7691 26.8846C63.9908 26.8846 67.936 22.208 70.3269 17.2571C71.264 17.376 72.672 17.344 74.0251 16.3886C73.4491 17.8469 73.1109 19.4423 73.1109 21.0377C73.1109 25.632 75.3051 26.9211 77.1931 26.9211C79.2457 26.9211 80.9097 25.696 82.1851 23.5429C82.6057 25.4857 83.68 26.8937 85.6548 26.8937C88.7451 26.8937 91.4286 23.7349 91.4286 21.1429C91.4286 20.4571 91.136 20.0411 90.7931 20.0411ZM26.6514 24.3749C25.4034 24.3749 24.9143 23.1177 24.9143 21.2434C24.9143 17.9886 27.1406 12.5531 29.4949 12.5531C30.5234 12.5531 30.912 13.7646 30.912 15.2457C30.912 18.5509 28.7954 24.3749 26.6514 24.3749ZM69.3988 14.6606C68.6537 13.7737 68.384 12.5669 68.384 11.4926C68.384 10.1669 68.8686 9.04686 69.4491 9.04686C70.0297 9.04686 70.208 9.61829 70.208 10.4137C70.208 11.744 69.7326 13.6869 69.3988 14.6606ZM79.0766 24.3749C77.8286 24.3749 77.3394 22.9303 77.3394 21.2434C77.3394 18.1029 79.5657 12.5531 81.9383 12.5531C82.9669 12.5531 83.3326 13.7554 83.3326 15.2457C83.3326 18.5509 81.2526 24.3749 79.0766 24.3749Z" fill="white"/>
<defs>
<radialGradient id="paint0_radial_2003:32123" cx="0" cy="0" r="1" gradientUnits="userSpaceOnUse" gradientTransform="translate(46.8114 32.5029) rotate(-45.8069) scale(27.5435 18.305)">
<stop stop-color="#6420FF"/>
<stop offset="1" stop-color="#6420FF" stop-opacity="0"/>
</radialGradient>
<radialGradient id="paint1_radial_2003:32123" cx="0" cy="0" r="1" gradientUnits="userSpaceOnUse" gradientTransform="translate(2.19428 19.52) rotate(5.08826) scale(53.6055 42.7248)">
<stop offset="0.25" stop-color="#00C4CC"/>
<stop offset="1" stop-color="#00C4CC" stop-opacity="0"/>
</radialGradient>
<radialGradient id="paint2_radial_2003:32123" cx="0" cy="0" r="1" gradientUnits="userSpaceOnUse" gradientTransform="translate(39.0171 29.3029) rotate(-38.8493) scale(34.544 23.6202)">
<stop stop-color="#6420FF"/>
<stop offset="1" stop-color="#6420FF" stop-opacity="0"/>
</radialGradient>
<radialGradient id="paint3_radial_2003:32123" cx="0" cy="0" r="1" gradientUnits="userSpaceOnUse" gradientTransform="translate(2.60571 29.3029) rotate(-26.1243) scale(39.8671 27.2599)">
<stop stop-color="#6420FF"/>
<stop offset="1" stop-color="#6420FF" stop-opacity="0"/>
</radialGradient>
</defs>
</svg>
